<svg xmlns="http://www.w3.org/2000/svg" version="1.1" xmlns:xlink="http://www.w3.org/1999/xlink" xmlns:svgjs="http://svgjs.dev/svgjs" width="1500" height="1500" viewBox="0 0 1500 1500"><rect width="1500" height="1500" fill="#ffffff"></rect><g transform="matrix(0.6666666666666666,0,0,0.6666666666666666,250.96093749999994,107.52064777327934)"><svg viewBox="0 0 192 247" data-background-color="#ffffff" preserveAspectRatio="xMidYMid meet" height="1929" width="1500" xmlns="http://www.w3.org/2000/svg" xmlns:xlink="http://www.w3.org/1999/xlink"><g id="tight-bounds" transform="matrix(1,0,0,1,-0.18449999999998568,-0.09999999999999432)"><svg viewBox="0 0 192.36881418826744 247.2" height="247.2" width="192.36881418826744"><g><svg></svg></g><g><svg viewBox="0 0 192.36881418826744 247.2" height="247.2" width="192.36881418826744"><g transform="matrix(1,0,0,1,0,47.215199999999996)"><svg viewBox="0 0 192.36881418826744 152.7696" height="152.7696" width="192.36881418826744"><g><svg viewBox="0 0 192.36881418826744 152.7696" height="152.7696" width="192.36881418826744"><g><svg viewBox="0 0 192.36881418826744 152.7696" height="152.7696" width="192.36881418826744"><g><svg viewBox="0 0 192.36881418826744 152.7696" height="152.7696" width="192.36881418826744"><g id="textblocktransform"><svg viewBox="0 0 192.36881418826744 152.7696" height="152.7696" width="192.36881418826744" id="textblock"><g><svg viewBox="0 0 192.36881418826744 152.7696" height="152.7696" width="192.36881418826744"><g transform="matrix(1,0,0,1,0,0)"><svg width="192.36881418826744" viewBox="0.05 -36.25 46.150000000000006 36.65" height="152.7696" data-palette-color="#000000"><path d="M5.1 0.4L5.1 0.4Q2.7 0.4 0.05-0.3L0.05-0.3 0.35-3.15Q0.5-4.1 1.35-4.1L1.35-4.1Q1.65-4.1 2.02-4.05 2.4-4 2.65-3.9L2.65-3.9Q3.1-3.75 3.53-3.7 3.95-3.65 4.45-3.65L4.45-3.65Q8.1-3.65 9.83-5.78 11.55-7.9 11.55-12.3L11.55-12.3 11.55-35.85 16.4-35.85 16.4-12.4Q16.4-8.45 15.1-5.58 13.8-2.7 11.3-1.15 8.8 0.4 5.1 0.4ZM7.95-35.85L13.05-35.85 12.5-31.95 8.75-32.75Q8.35-32.85 8.15-33.1 7.95-33.35 7.95-33.8L7.95-33.8 7.95-35.85ZM14.95-35.85L20.05-35.85 20.05-33.8Q20.05-33.35 19.85-33.1 19.65-32.85 19.25-32.75L19.25-32.75 15.5-31.95 14.95-35.85ZM33.95 0.4L33.95 0.4Q32.05 0.4 30.07 0.08 28.1-0.25 26.42-0.7 24.75-1.15 23.75-1.5L23.75-1.5 23.75-5.95 27.6-5Q29.65-4.25 31.07-3.95 32.5-3.65 34.35-3.65L34.35-3.65Q36.6-3.65 38.22-4.45 39.85-5.25 40.75-6.7 41.65-8.15 41.65-10L41.65-10Q41.65-11.75 40.9-12.85 40.15-13.95 38.9-14.63 37.65-15.3 36.12-15.78 34.6-16.25 33-16.8L33-16.8Q30.95-17.5 28.97-18.55 27-19.6 25.75-21.38 24.5-23.15 24.5-26.1L24.5-26.1Q24.5-29.05 25.87-31.35 27.25-33.65 29.75-34.95 32.25-36.25 35.65-36.25L35.65-36.25Q37.8-36.25 40.42-35.73 43.05-35.2 45.4-34.2L45.4-34.2 45.4-30.5 41.6-31.25Q40-31.7 38.42-31.95 36.85-32.2 35.65-32.2L35.65-32.2Q32.6-32.2 30.8-30.68 29-29.15 29-26.75L29-26.75Q29-24.65 30.27-23.5 31.55-22.35 33.52-21.65 35.5-20.95 37.6-20.2L37.6-20.2Q39.95-19.4 41.9-18.3 43.85-17.2 45.02-15.43 46.2-13.65 46.2-10.7L46.2-10.7Q46.2-7.55 44.72-5.03 43.25-2.5 40.52-1.05 37.8 0.4 33.95 0.4ZM42.05-26.75L41.3-31.75 45.4-30.5 45.4-25.95 43.1-25.95Q42.7-25.95 42.42-26.13 42.15-26.3 42.05-26.75L42.05-26.75ZM27.1-9.7L27.85-4.7 23.75-5.95 23.75-10.5 26.05-10.5Q26.45-10.5 26.75-10.33 27.05-10.15 27.1-9.7L27.1-9.7Z" opacity="1" transform="matrix(1,0,0,1,0,0)" fill="#000000" class="wordmark-text-0" data-fill-palette-color="primary" id="text-0"></path></svg></g></svg></g></svg></g></svg></g><g></g></svg></g></svg></g></svg></g><path d="M0 41.215L0 1 192.369 1 192.369 41.215 178.592 41.215 178.592 14.777 13.777 14.777 13.777 41.215 0 41.215M0 205.985L0 246.2 192.369 246.2 192.369 205.985 178.592 205.985 178.592 232.423 13.777 232.423 13.777 205.985 0 205.985" fill="#000000" stroke="transparent" data-fill-palette-color="tertiary"></path></svg></g><defs></defs></svg><rect width="192.36881418826744" height="247.2" fill="none" stroke="none" visibility="hidden"></rect></g></svg></g></svg>